PathFileType	4	(X/Y/Z)	C:\Users\WrightLab\Desktop\Jo\P1_boxCal6.trc
DataRate	CameraRate	NumFrames	NumMarkers	Units	OrigDataRate	OrigDataStartFrame	OrigNumFrames
100.00	100.00	       93	19	mm	100.00	462	       739
Frame#	Time	Headset_Front			Headset_Back			Headset_Left			Headset_Right			Left_Shoulder			Right_Shoulder			Sternum			C7			Left Elbow			Right Elbow			Left Wrist			Right Wrist			Left ASIS			Right ASIS			S2			Left Knee			Right Knee			Left Ankle			Right Ankle			
		X1	Y1	Z1	X2	Y2	Z2	X3	Y3	Z3	X4	Y4	Z4	X5	Y5	Z5	X6	Y6	Z6	X7	Y7	Z7	X8	Y8	Z8	X9	Y9	Z9	X10	Y10	Z10	X11	Y11	Z11	X12	Y12	Z12	X13	Y13	Z13	X14	Y14	Z14	X15	Y15	Z15	X16	Y16	Z16	X17	Y17	Z17	X18	Y18	Z18	X19	Y19	Z19	

462	4.610																															-258.34216	808.33521	2309.79126													-447.72037	528.87939	2364.75488				-422.36078	195.95689	2490.68188	-583.98474	140.73567	1915.33325	
463	4.620																															-262.26627	808.72705	2321.09961													-453.13608	526.15826	2373.48804				-426.23593	191.86426	2494.86279	-583.09943	142.14490	1916.17273	
464	4.630																															-267.79370	808.14453	2336.46118													-457.95309	523.51367	2381.28589				-430.06390	187.49242	2497.87158	-582.15588	143.55766	1916.48584	
465	4.640																															-272.30493	808.11023	2349.63184													-462.60608	520.26447	2388.56445				-431.89682	182.21831	2500.51587	-581.05115	145.39908	1916.92542	
466	4.650																															-277.72534	807.06006	2362.39160													-466.67053	517.33777	2395.99731				-434.35681	179.02762	2503.86938	-579.91998	147.17667	1917.32629	
467	4.660																															-282.37854	807.22552	2377.02393													-470.33838	513.92944	2402.57202				-435.66202	174.36847	2504.89282	-578.43176	147.72058	1917.66187	
468	4.670																															-289.49951	807.20514	2390.69312													-473.76965	510.33673	2408.19727				-436.91147	169.59848	2505.08179	-577.54413	150.89180	1918.58850	
469	4.680																															-295.30252	808.05383	2405.16895													-477.26663	508.28296	2413.81934				-437.72449	166.02553	2504.48438	-576.11780	153.38417	1919.23511	
470	4.690																															-301.66489	808.55402	2420.42529													-481.35498	506.38934	2419.07446				-438.14572	164.23161	2503.39063	-574.18457	154.72581	1919.78564	
471	4.700																															-308.47073	809.81995	2436.35449													-485.52963	505.80997	2424.00903				-438.91486	164.60921	2504.03003	-572.85120	158.63344	1921.16138	
472	4.710																															-315.20267	811.38660	2452.49951																			-439.00699	164.32906	2503.90625	-569.84088	160.57693	1923.35437	
473	4.720																															-323.63022	813.43353	2469.09814																			-439.57278	164.17619	2504.64478	-567.34552	163.51942	1927.84399	
474	4.730																															-331.58328	815.73840	2486.10522																			-440.90228	164.67953	2506.94775	-563.45801	166.57527	1928.21155	
475	4.740																															-341.02759	819.65332	2504.13599																			-441.62561	164.28343	2508.75757	-560.53040	171.13690	1927.79150	
476	4.750																															-350.65353	823.27448	2521.19629																			-441.74603	162.59642	2508.62769	-555.66760	173.78802	1929.14490	
477	4.760																															-360.96814	826.95367	2538.10718																			-442.32422	160.61037	2510.01831	-550.01135	176.77370	1932.98767	
478	4.770																																																				-442.71362	160.25488	2510.24536	-543.68225	181.05547	1933.42493	
479	4.780																																																				-443.64883	159.19438	2511.84277	-536.86584	185.13565	1936.44739	
480	4.790																																																				-444.99597	158.38588	2513.93091	-528.68457	187.69099	1941.32861	
481	4.800																																																				-445.56290	157.13083	2515.36890	-519.91913	189.39906	1948.05066	
482	4.810																																																				-446.14661	155.36891	2515.44751	-511.18738	193.14000	1951.25415	
483	4.820																																																				-447.06033	154.53029	2516.37598	-501.97919	195.43391	1958.32373	
484	4.830																																																				-447.79526	154.32610	2517.28784	-492.48096	197.74266	1965.02722	
485	4.840																																																				-448.23361	153.68706	2518.46509	-482.66415	199.88072	1969.58862	
486	4.850																																																				-447.96130	152.69226	2518.78076	-473.38455	202.37489	1978.27722	
487	4.860																																																				-447.63303	152.08055	2518.66870	-463.88449	203.33904	1984.58264	
488	4.870																																																				-447.64999	151.64281	2519.35010	-454.85187	206.57115	1990.55298	
489	4.880																																																				-447.60745	151.23976	2519.51855				
490	4.890																																																				-447.51477	150.61644	2519.90918				
491	4.900																																																				-447.13458	149.59880	2519.54688				
492	4.910																																																				-447.33795	149.62520	2520.07178				
493	4.920																																																				-447.48904	149.49170	2520.51001				
494	4.930																																																				-447.57919	148.94693	2520.58105				
495	4.940																																																				-448.00629	148.78813	2521.19702				
496	4.950																																																				-448.06857	148.54019	2521.14771				
497	4.960																																																				-448.42773	148.57259	2521.36963				
498	4.970																																																				-448.86450	148.13063	2522.18115				
499	4.980																																																				-449.14661	147.83296	2522.42236				
500	4.990																																																				-449.87231	148.38895	2523.46802				
501	5.000																																																				-450.03290	148.04900	2523.17554				
502	5.010																																																				-450.29639	147.51079	2522.68433				
503	5.020																																																				-450.79364	147.22305	2522.55249				
504	5.030																																																				-451.58960	146.47266	2522.54858				
505	5.040																																																				-453.25858	146.78152	2523.03711				
506	5.050																																																				-453.74149	145.16721	2522.56470				
507	5.060																																																				-454.72101	145.14507	2523.48706				
508	5.070																																																				-455.63873	145.85994	2523.92773				
509	5.080																																																				-456.43097	145.97765	2524.18481				
510	5.090																																																				-457.91098	145.45422	2524.80859				
511	5.100																																																				-458.47568	144.48726	2523.66260				
512	5.110																																																				-459.85770	144.84035	2524.13647				
513	5.120																																																				-461.29700	146.02177	2525.85425				
514	5.130																																																				-461.61209	145.34755	2525.29224				
515	5.140																																																				-462.29028	144.64047	2524.86035				
516	5.150																																																				-464.11548	144.50954	2524.97046				
517	5.160																																																				-465.49048	144.23174	2524.57935				
518	5.170																																																				-466.05957	143.86946	2524.15015				
519	5.180																																																				-466.45334	143.71539	2524.25781				
520	5.190																																																				-467.19653	143.95735	2525.14673				
521	5.200																																																				-468.04208	144.80801	2525.74292				
522	5.210																																																				-468.58090	144.53113	2525.58691				
523	5.220																																																				-469.43362	144.50729	2525.02417				
524	5.230																																																				-469.94568	143.69328	2523.96240				
525	5.240																																																				-471.01868	144.12726	2523.77905				
526	5.250																																																				-471.69016	144.98100	2523.50122				
527	5.260																																																				-472.32013	145.50754	2523.42432				
528	5.270																																																				-473.78024	145.71370	2521.39404				
529	5.280																																																				-475.26566	145.67914	2520.25806				
530	5.290																																																				-476.50735	147.48711	2520.38940				
531	5.300																																																				-478.23315	147.31819	2517.24878				
532	5.310																																																				-479.78812	148.94002	2517.16895				
533	5.320																																																				-481.52036	150.39709	2515.72656				
534	5.330																																																				-483.72629	151.66295	2515.31812				
535	5.340																																																				-485.38821	154.10225	2515.27148				
536	5.350																																																				-488.37274	154.69470	2514.22852				
537	5.360																																																				-490.80264	156.76447	2514.21289				
538	5.370																																																				-494.44614	159.78914	2514.56372				
539	5.380																																																				-496.97321	163.57852	2513.82471				
540	5.390																																																				-500.51111	166.31746	2513.27173				
541	5.400																																																				-504.74402	169.11467	2512.46313				
542	5.410																																																				-509.49893	173.50473	2511.45288				
543	5.420																																																				-514.73962	177.10072	2510.91748				
544	5.430																																																				-519.87482	181.38362	2510.63037				
545	5.440																																																				-526.20435	185.97284	2510.49976				
546	5.450																																																				-532.78949	190.47519	2508.88159				
547	5.460																																																				-540.77863	194.29074	2507.71191				
548	5.470																																																				-548.88959	197.32681	2506.19824				
549	5.480																																																				-556.91840	200.75938	2504.65186				
550	5.490																																																										
551	5.500																																																										
552	5.510																																																										
553	5.520																																																										
554	5.530																																																										
